<svg width="342" height="45" viewBox="0 0 342 45" fill="none" xmlns="http://www.w3.org/2000/svg">
<path d="M204 14H203V41H204V14Z" fill="white"/>
<path d="M224 24.2831V14.5271H231.493V24.2831H229.602V15.8491L230.028 16.369H225.456L225.891 15.8491V24.2831H224Z" fill="white"/>
<path d="M234.486 24.283V14.5271H238.038C238.696 14.5108 239.349 14.6561 239.938 14.9502C240.46 15.2307 240.889 15.6564 241.172 16.1752C241.472 16.7614 241.622 17.4124 241.607 18.07C241.621 18.7218 241.471 19.3667 241.172 19.9471C240.894 20.4694 240.464 20.8963 239.938 21.1721C239.349 21.4661 238.696 21.6114 238.038 21.5951H235.543L236.431 20.5816V24.283H234.486ZM236.386 20.8284L235.498 19.7532H237.896C238.133 19.771 238.372 19.7412 238.598 19.6655C238.824 19.5898 239.032 19.4698 239.21 19.3125C239.472 19.0717 239.652 18.7553 239.725 18.4077C239.797 18.0601 239.758 17.6987 239.613 17.3742C239.468 17.0497 239.225 16.7783 238.917 16.5981C238.609 16.4178 238.252 16.3377 237.896 16.369H235.498L236.386 15.2939V20.8284Z" fill="white"/>
<path d="M247.867 24.4505C247.255 24.4621 246.648 24.3394 246.089 24.0911C245.53 23.8427 245.034 23.4749 244.635 23.014C244.223 22.5457 243.904 22.0046 243.694 21.4188C243.256 20.1146 243.256 18.7044 243.694 17.4002C243.903 16.8097 244.226 16.2651 244.644 15.7962C245.044 15.3413 245.538 14.9774 246.093 14.7295C246.647 14.4815 247.249 14.3554 247.858 14.3597C248.466 14.3531 249.069 14.4781 249.624 14.7262C250.179 14.9743 250.673 15.3394 251.072 15.7962C251.482 16.2658 251.801 16.8066 252.013 17.3913C252.474 18.6947 252.474 20.1154 252.013 21.4188C251.809 22.0053 251.492 22.547 251.081 23.014C250.684 23.4579 250.2 23.8176 249.66 24.0715C249.097 24.3266 248.485 24.456 247.867 24.4505ZM247.867 22.5293C248.219 22.5349 248.569 22.4595 248.888 22.309C249.2 22.1543 249.476 21.9349 249.696 21.6656C249.939 21.3732 250.126 21.0385 250.246 20.6786C250.507 19.8523 250.507 18.9667 250.246 18.1404C250.127 17.7817 249.944 17.4473 249.704 17.1534C249.372 16.7429 248.91 16.456 248.392 16.3392C247.875 16.2224 247.333 16.2826 246.854 16.51C246.538 16.6619 246.259 16.8816 246.038 17.1534C245.792 17.4446 245.606 17.7796 245.487 18.1404C245.358 18.5511 245.295 18.9794 245.301 19.4095C245.297 19.8366 245.36 20.2617 245.487 20.6697C245.606 21.0312 245.79 21.3686 246.029 21.6656C246.25 21.9374 246.529 22.1571 246.846 22.309C247.162 22.4573 247.508 22.5326 247.858 22.5293H247.867Z" fill="white"/>
<path d="M254.771 24.2831V14.5271H256.663V20.8813L260.587 14.5271H262.363V24.2831H260.489V17.9466L256.574 24.2831H254.771Z" fill="white"/>
<path d="M264.625 23.4194L265.211 21.8066C265.559 22.0527 265.942 22.2458 266.347 22.3794C266.728 22.5132 267.125 22.5904 267.528 22.6086C267.885 22.6219 268.242 22.5772 268.585 22.4764C268.874 22.3906 269.137 22.2329 269.348 22.0181C269.545 21.8046 269.65 21.5231 269.641 21.2338C269.652 21.0741 269.622 20.9143 269.554 20.7694C269.486 20.6245 269.381 20.4992 269.251 20.4054C268.945 20.2085 268.585 20.1128 268.221 20.1322H266.17V18.4313H268.043C268.364 18.4515 268.681 18.3508 268.931 18.1493C269.038 18.0529 269.122 17.9341 269.178 17.8015C269.233 17.6689 269.258 17.5258 269.251 17.3825C269.261 17.1385 269.178 16.8996 269.02 16.7127C268.845 16.53 268.624 16.3963 268.381 16.325C268.092 16.2455 267.792 16.2099 267.493 16.2192C267.136 16.2312 266.782 16.2965 266.445 16.4131C266.08 16.5319 265.733 16.701 265.415 16.9154L264.838 15.1528C265.357 14.8323 265.928 14.6027 266.525 14.4743C267.087 14.3511 267.666 14.3184 268.239 14.3773C268.763 14.4302 269.272 14.5828 269.739 14.8268C270.158 15.0347 270.523 15.3364 270.804 15.7081C271.076 16.1051 271.216 16.5766 271.204 17.0564C271.214 17.4896 271.11 17.9179 270.902 18.2991C270.696 18.6593 270.387 18.9508 270.014 19.1363C269.655 19.3457 269.25 19.4666 268.833 19.4888V18.9865C269.331 18.975 269.823 19.0903 270.263 19.3214C270.653 19.5228 270.979 19.828 271.204 20.2027C271.432 20.609 271.549 21.0681 271.541 21.5334C271.548 21.9713 271.438 22.4032 271.222 22.7848C271.004 23.159 270.7 23.4763 270.334 23.7102C269.961 23.9703 269.542 24.1586 269.1 24.2654C268.619 24.3906 268.122 24.4441 267.626 24.4241C267.092 24.4018 266.564 24.3099 266.054 24.1509C265.545 23.9773 265.063 23.7309 264.625 23.4194Z" fill="white"/>
<path d="M274.021 24.283V14.5271H277.848C278.646 14.4783 279.436 14.7126 280.077 15.1881C280.345 15.4159 280.557 15.7023 280.696 16.0249C280.834 16.3475 280.896 16.6975 280.876 17.0476C280.896 17.3942 280.84 17.741 280.711 18.0638C280.582 18.3865 280.384 18.6774 280.13 18.916C279.57 19.3752 278.858 19.6108 278.132 19.577L278.354 18.9865C279.128 18.9378 279.892 19.173 280.503 19.6474C280.764 19.8869 280.968 20.1813 281.1 20.5091C281.232 20.8369 281.289 21.1899 281.266 21.5422C281.285 21.916 281.222 22.2893 281.081 22.6364C280.94 22.9834 280.725 23.2957 280.449 23.5516C279.778 24.0846 278.928 24.3458 278.07 24.283H274.021ZM275.939 18.6075H277.715C278.038 18.6229 278.356 18.5158 278.603 18.3079C278.808 18.0592 278.919 17.7478 278.919 17.4266C278.919 17.1054 278.808 16.794 278.603 16.5453C278.356 16.3374 278.038 16.2303 277.715 16.2457H275.939V18.6075ZM275.939 22.6527H278.026C278.387 22.6773 278.745 22.5673 279.029 22.3442C279.149 22.2181 279.242 22.0681 279.3 21.9041C279.358 21.7401 279.381 21.5657 279.366 21.3924C279.376 21.2302 279.35 21.0679 279.292 20.916C279.234 20.7642 279.144 20.6262 279.029 20.5111C278.743 20.2911 278.386 20.1843 278.026 20.2115H275.939V22.6527Z" fill="white"/>
<path d="M287.65 24.4505C287.039 24.4518 286.434 24.3257 285.875 24.0803C285.327 23.8297 284.84 23.4662 284.445 23.014C284.033 22.5457 283.714 22.0045 283.504 21.4188C283.066 20.1145 283.066 18.7044 283.504 17.4001C283.714 16.8097 284.036 16.265 284.454 15.7962C284.847 15.3441 285.335 14.9831 285.884 14.7386C286.443 14.4928 287.048 14.3659 287.659 14.3659C288.271 14.3659 288.876 14.4928 289.435 14.7386C289.978 14.9878 290.462 15.3482 290.856 15.7962C291.266 16.2658 291.585 16.8066 291.797 17.3913C292.258 18.6947 292.258 20.1154 291.797 21.4188C291.59 22.006 291.27 22.5478 290.856 23.014C290.458 23.4568 289.975 23.8163 289.435 24.0715C288.875 24.3245 288.266 24.4538 287.65 24.4505ZM287.65 22.5293C288.001 22.5348 288.347 22.4594 288.663 22.3089C288.979 22.1571 289.258 21.9373 289.479 21.6656C289.723 21.3732 289.909 21.0385 290.03 20.6785C290.29 19.8523 290.29 18.9667 290.03 18.1404C289.911 17.7816 289.727 17.4472 289.488 17.1534C289.267 16.8816 288.988 16.6619 288.672 16.51C288.353 16.3576 288.004 16.2793 287.65 16.2809C287.3 16.2784 286.953 16.3569 286.638 16.51C286.321 16.6619 286.043 16.8816 285.822 17.1534C285.576 17.4446 285.39 17.7796 285.271 18.1404C285.139 18.5506 285.073 18.9789 285.076 19.4095C285.075 19.837 285.141 20.2621 285.271 20.6697C285.39 21.0312 285.573 21.3685 285.813 21.6656C286.034 21.9373 286.313 22.1571 286.629 22.3089C286.946 22.4573 287.292 22.5326 287.642 22.5293H287.65Z" fill="white"/>
<path d="M293.475 26.31V22.45H302.779V26.31H301.003V24.2831H295.206V26.31H293.475ZM299.769 23.2872V16.369H296.955V17.7879C296.955 18.396 296.902 18.9689 296.857 19.5064C296.82 20.0003 296.755 20.4917 296.662 20.9782C296.593 21.3628 296.48 21.7383 296.325 22.0974C296.228 22.3616 296.051 22.5895 295.819 22.7496L293.785 22.45C293.921 22.4547 294.057 22.4248 294.178 22.3631C294.299 22.3014 294.402 22.2099 294.478 22.0974C294.696 21.791 294.847 21.4428 294.922 21.0751C295.04 20.5616 295.12 20.0403 295.162 19.5153C295.215 18.9248 295.25 18.2814 295.277 17.5852L295.366 14.5271H301.687V23.2872H299.769Z" fill="white"/>
<path d="M308.922 24.4505C308.31 24.4579 307.703 24.3315 307.146 24.0803C306.599 23.8422 306.113 23.4836 305.725 23.0316C305.332 22.5561 305.031 22.0123 304.838 21.4277C304.608 20.7795 304.494 20.0966 304.5 19.4095C304.495 18.7196 304.609 18.0339 304.838 17.3825C305.044 16.7952 305.364 16.2535 305.779 15.7874C306.167 15.3378 306.648 14.977 307.19 14.7298C307.748 14.48 308.354 14.3537 308.966 14.3597C309.635 14.3509 310.295 14.5021 310.893 14.8003C311.48 15.1002 311.981 15.5429 312.349 16.087L311.124 17.4266C310.879 17.0675 310.558 16.7665 310.182 16.5453C309.839 16.3508 309.45 16.2504 309.055 16.2545C308.69 16.253 308.329 16.3312 307.998 16.4836C307.676 16.635 307.391 16.8546 307.164 17.127C306.925 17.4208 306.741 17.7552 306.622 18.114C306.362 18.9403 306.362 19.8259 306.622 20.6521C306.743 21.0101 306.926 21.3442 307.164 21.6392C307.391 21.9115 307.676 22.1311 307.998 22.2825C308.33 22.4322 308.691 22.5074 309.055 22.5028C309.449 22.5059 309.837 22.4088 310.182 22.2208C310.559 22.0006 310.88 21.6994 311.124 21.3395L312.349 22.6791C311.979 23.2237 311.478 23.6688 310.893 23.9746C310.285 24.2917 309.608 24.4552 308.922 24.4505Z" fill="white"/>
<path d="M316.203 24.2831V15.8491L316.629 16.369H313.584V14.5271H320.687V16.369H317.668L318.085 15.8491V24.2831H316.203Z" fill="white"/>
<path d="M322.852 24.283V14.5271H326.687C327.485 14.4798 328.274 14.7139 328.915 15.1881C329.184 15.4159 329.396 15.7023 329.535 16.0249C329.673 16.3475 329.735 16.6975 329.715 17.0476C329.736 17.3951 329.679 17.7429 329.549 18.0659C329.418 18.389 329.217 18.6793 328.96 18.916C328.402 19.3782 327.688 19.6143 326.962 19.5769L327.193 18.9865C327.966 18.9395 328.731 19.1745 329.342 19.6474C329.602 19.8873 329.805 20.182 329.935 20.5099C330.066 20.8378 330.121 21.1905 330.096 21.5422C330.117 21.9153 330.056 22.2885 329.916 22.6356C329.777 22.9827 329.562 23.2953 329.288 23.5515C328.616 24.083 327.766 24.3441 326.909 24.283H322.852ZM324.769 18.6075H326.545C326.886 18.634 327.224 18.5264 327.486 18.3079C327.691 18.0592 327.803 17.7478 327.803 17.4266C327.803 17.1054 327.691 16.794 327.486 16.5453C327.224 16.3268 326.886 16.2192 326.545 16.2457H324.769V18.6075ZM324.769 22.6526H326.865C327.223 22.6768 327.578 22.5667 327.859 22.3442C327.983 22.2199 328.078 22.0704 328.137 21.906C328.197 21.7417 328.22 21.5665 328.205 21.3924C328.215 21.2294 328.189 21.0662 328.13 20.914C328.07 20.7618 327.977 20.6244 327.859 20.5111C327.577 20.2909 327.222 20.184 326.865 20.2115H324.769V22.6526Z" fill="white"/>
<path d="M336.489 24.4505C335.877 24.4526 335.272 24.3265 334.713 24.0804C334.166 23.8297 333.679 23.4662 333.284 23.014C332.869 22.5479 332.549 22.0061 332.343 21.4189C331.891 20.1168 331.891 18.7022 332.343 17.4002C332.549 16.8101 332.869 16.2654 333.284 15.7962C333.682 15.3458 334.172 14.9852 334.722 14.7387C335.557 14.3555 336.495 14.2515 337.395 14.4422C338.294 14.6329 339.107 15.108 339.712 15.7962C340.125 16.2653 340.447 16.8061 340.662 17.3914C341.112 18.6967 341.112 20.1135 340.662 21.4189C340.444 22.0087 340.112 22.5505 339.685 23.014C339.291 23.4606 338.807 23.8208 338.265 24.0716C337.708 24.3244 337.102 24.4537 336.489 24.4505ZM336.489 22.5293C336.839 22.5339 337.185 22.4585 337.501 22.309C337.818 22.1571 338.097 21.9374 338.318 21.6656C338.558 21.3711 338.744 21.037 338.868 20.6786C339.119 19.8509 339.119 18.9682 338.868 18.1405C338.749 17.7817 338.566 17.4473 338.327 17.1534C338.106 16.8817 337.827 16.6619 337.51 16.5101C337.192 16.3577 336.842 16.2793 336.489 16.2809C336.135 16.2784 335.786 16.3568 335.468 16.5101C335.153 16.6643 334.874 16.8837 334.651 17.1534C334.409 17.4451 334.225 17.7801 334.11 18.1405C333.973 18.5496 333.907 18.9786 333.914 19.4095C333.909 19.8374 333.975 20.2632 334.11 20.6698C334.225 21.0328 334.409 21.3707 334.651 21.6656C334.869 21.9425 335.148 22.166 335.467 22.3188C335.785 22.4717 336.135 22.5497 336.489 22.5469V22.5293Z" fill="white"/>
<path d="M224 41.01V31.2541H231.493V41.01H229.602V32.576L230.028 33.096H225.456L225.891 32.576V41.01H224Z" fill="white"/>
<path d="M237.113 31.0866C237.702 31.0796 238.285 31.2062 238.817 31.4568C239.339 31.7079 239.8 32.0688 240.167 32.5143C240.562 32.9853 240.863 33.5266 241.055 34.1095C241.273 34.7629 241.381 35.4479 241.374 36.1364C241.381 36.8221 241.273 37.5042 241.055 38.1546C240.863 38.7401 240.562 39.2843 240.167 39.7585C239.798 40.2074 239.331 40.5681 238.803 40.8137C238.274 41.0593 237.696 41.1836 237.113 41.1774C236.429 41.1905 235.753 41.0393 235.142 40.7368C234.556 40.431 234.056 39.9859 233.686 39.4413L234.893 38.1017C235.148 38.4611 235.478 38.7617 235.861 38.983C236.219 39.1721 236.618 39.269 237.024 39.265C237.363 39.2656 237.698 39.1871 238 39.0359C238.304 38.882 238.568 38.6621 238.773 38.3925C238.998 38.0995 239.166 37.7679 239.27 37.4143C239.495 36.583 239.495 35.7075 239.27 34.8762C239.164 34.5207 238.996 34.1865 238.773 33.8891C238.567 33.6221 238.303 33.4051 238 33.2546C237.699 33.0995 237.363 33.0207 237.024 33.0255C236.618 33.0171 236.217 33.1143 235.861 33.3075C235.478 33.5288 235.148 33.8294 234.893 34.1888L233.686 32.8492C234.056 32.3046 234.556 31.8595 235.142 31.5537C235.751 31.2423 236.427 31.0821 237.113 31.0866ZM236.029 36.9472V35.1846H240.096V36.9472H236.029Z" fill="white"/>
<path d="M245.477 41.01V32.576L245.912 33.096H242.857V31.2541H249.96V33.096H246.906L247.323 32.576V41.01H245.477Z" fill="white"/>
<path d="M256.406 41.01V31.2541H263.9V41.01H262.009V32.576L262.444 33.096H257.862L258.297 32.576V41.01H256.406Z" fill="white"/>
<path d="M266.92 41.1686C266.771 41.1666 266.622 41.1518 266.476 41.1245C266.308 41.096 266.142 41.0578 265.979 41.01L266.094 39.1064C266.203 39.1418 266.317 39.1596 266.431 39.1593C266.589 39.1599 266.743 39.1164 266.877 39.0338C267.01 38.9512 267.117 38.8327 267.186 38.6922C267.399 38.2707 267.532 37.8134 267.577 37.3438C267.657 36.7622 267.701 36.0483 267.728 35.2111L267.843 31.2541H274.164V41.01H272.282V32.576L272.717 33.096H269.086L269.477 32.5496L269.406 35.1318C269.406 36.0924 269.326 36.9384 269.246 37.6787C269.179 38.3223 269.045 38.9573 268.846 39.5735C268.71 40.0294 268.452 40.4404 268.1 40.7632C267.773 41.0418 267.351 41.1867 266.92 41.1686Z" fill="white"/>
<path d="M279.056 39.2033H283.495V41.01H277.129V31.2541H283.344V33.0695H279.02L279.056 39.2033ZM278.913 35.1846H282.873V36.9472H278.913V35.1846Z" fill="white"/>
<path d="M287.925 41.01H286.025V31.2541H287.925V41.01ZM291.796 37.0089H287.783V35.1053H291.796V37.0089ZM291.654 31.2541H293.563V41.01H291.654V31.2541Z" fill="white"/>
<path d="M296.545 41.01V31.2541H298.427V41.01H296.545ZM297.877 37.0794V35.2022H300.744V37.1147L297.877 37.0794ZM301.037 36.3832L299.262 36.1364L301.925 31.2541H303.932L301.037 36.3832ZM301.925 41.01L299.368 36.3127L300.904 35.2111L304.092 41.01H301.925Z" fill="white"/>
<path d="M305.885 41.01V31.2541H307.776V37.6082L311.7 31.2541H313.476V41.01H311.594V34.6735L307.678 41.01H305.885Z" fill="white"/>
<path d="M68.0026 34.2745C67.3064 34.7483 66.4807 34.9885 65.5486 34.9885C64.3751 34.9885 63.401 34.5824 62.6537 33.7814C61.9085 32.9826 61.5306 31.9399 61.5306 30.682C61.5306 29.4048 61.9086 28.3571 62.6541 27.5677C63.4016 26.7766 64.3952 26.3755 65.6071 26.3755C66.4999 26.3755 67.3009 26.6106 67.9878 27.0746C68.6548 27.5256 69.1361 28.1388 69.4191 28.8979H76.147C75.8315 27.155 75.1914 25.6155 74.2436 24.3205C73.2749 22.9978 72.0106 21.9699 70.486 21.2656C68.958 20.5602 67.2084 20.2025 65.2858 20.2025C63.2104 20.2025 61.34 20.647 59.7264 21.5235C58.1156 22.3991 56.8464 23.6439 55.9545 25.2236C55.062 26.8051 54.6094 28.6415 54.6094 30.682C54.6094 32.7229 55.062 34.5593 55.9545 36.1404C56.8463 37.7203 58.1154 38.9652 59.7264 39.8403C61.339 40.7169 63.2291 41.1614 65.3441 41.1614C67.2664 41.1614 69.0306 40.7892 70.5875 40.0552C72.1414 39.3224 73.4306 38.2749 74.4194 36.9416C75.3856 35.6381 75.9977 34.1035 76.2396 32.3791H69.4771C69.1762 33.1759 68.6803 33.8133 68.0026 34.2745Z" fill="white"/>
<path d="M91.7887 26.8742C90.4125 25.6792 88.4008 25.0731 85.8096 25.0731C83.5247 25.0731 81.7021 25.5495 80.3926 26.489C79.1167 27.404 78.3451 28.7602 78.0983 30.5214H84.0242C84.0835 30.149 84.2698 29.8441 84.5791 29.614C84.907 29.3697 85.3112 29.2458 85.7804 29.2458C86.2897 29.2458 86.7196 29.3853 87.0583 29.6603C87.4033 29.9405 87.5782 30.2939 87.5782 30.711V31.7413H82.5084C80.926 31.7413 79.652 32.1664 78.7217 33.0049C77.7944 33.8405 77.3242 34.9708 77.3242 36.3643C77.3242 37.8137 77.8425 38.9772 78.8646 39.8227C79.8921 40.6724 81.3147 41.1033 83.0927 41.1033C84.1847 41.1033 85.1995 40.9299 86.1089 40.5882C87.0157 40.247 87.8041 39.7383 88.4522 39.076L88.5636 38.9624L89.2686 40.7265H93.8569V32.1025C93.8569 29.8251 93.1611 28.066 91.7887 26.8742ZM87.6658 34.8858C87.6658 35.588 87.4388 36.1592 86.991 36.5836C86.5447 37.0065 85.9506 37.2208 85.2253 37.2208C84.698 37.2208 84.2739 37.1015 83.9646 36.8662C83.647 36.6249 83.486 36.2999 83.486 35.9005C83.486 35.5014 83.647 35.1765 83.9646 34.9349C84.2743 34.6994 84.6984 34.5802 85.2253 34.5802H87.6658V34.8858Z" fill="white"/>
<path d="M106.36 33.8235L103.677 25.479H97.0977V40.7265H102.752V37.3501L102.696 34.5397L102.976 34.4645L105.07 40.7265H107.677L109.772 34.4645L110.051 34.5397L109.996 37.6419V40.7265H115.65V25.479H109.044L106.36 33.8235Z" fill="white"/>
<path d="M119.748 40.7265H126.611V26.8105H131.609V40.7265H138.472V20.6374H119.748V40.7265Z" fill="white"/>
<path d="M157.567 21.5235C155.954 20.647 154.083 20.2025 152.008 20.2025C150.163 20.2025 148.457 20.5601 146.939 21.2655C145.423 21.9702 144.158 22.9791 143.18 24.2641C142.224 25.5201 141.58 27.0005 141.264 28.6659H147.348C147.67 27.7916 148.22 27.0955 148.986 26.5954C149.768 26.0841 150.707 25.8247 151.774 25.8247C152.763 25.8247 153.631 26.0544 154.356 26.5074C155.082 26.9616 155.622 27.6118 155.96 28.4401L156.017 28.5812H150.98V32.7537H156.047L155.989 32.8949C155.651 33.7233 155.111 34.3781 154.386 34.8415C153.662 35.3046 152.783 35.5393 151.774 35.5393C150.706 35.5393 149.763 35.2751 148.971 34.7539C148.195 34.244 147.63 33.5136 147.29 32.5822H141.145C141.423 34.2683 142.054 35.7682 143.019 37.042C144.007 38.346 145.282 39.3697 146.808 40.0841C148.335 40.799 150.075 41.1614 151.978 41.1614C154.074 41.1614 155.955 40.7169 157.567 39.8403C159.178 38.965 160.447 37.7203 161.339 36.1404C162.232 34.5593 162.684 32.7227 162.684 30.682C162.684 28.6417 162.232 26.8051 161.339 25.2235C160.447 23.644 159.178 22.3991 157.567 21.5235Z" fill="white"/>
<path d="M164.277 20.6374V26.7814H170.208V40.7265H177.071V26.7814H183.001V20.6374H164.277Z" fill="white"/>
<path d="M47.6371 32.3968C47.799 24.1376 54.6368 23.2541 54.6368 16.5076C54.6368 9.76109 45.3711 10.1627 41.0818 10.1627C41.0818 10.1627 46.9897 11.3674 46.9897 14.0981C46.9897 16.8289 36.5497 21.8888 36.5497 28.8763C36.5497 33.8257 40.9757 37.4051 47.6705 40.4421C50.061 41.5265 52.5238 42.4376 55.0375 43.1826C53.7873 42.8509 52.5851 42.5109 51.805 42.2404C49.8155 41.5506 47.7261 40.8529 46.0185 40.1442C39.1761 37.3046 29.6436 32.1382 29.6436 27.5145C29.6436 23.8212 31.8256 22.1715 34.2072 20.4584C36.1376 19.0699 38.1979 17.6382 39.3352 15.0444C39.8838 13.7932 40.2185 12.2727 40.2185 10.354C40.2185 10.1808 40.2124 10.0091 40.2033 9.8382C40.088 7.29617 39.1254 5.30458 37.6402 3.84022C34.465 0.387436 28.7263 -1.19059 22.5296 1.02343C22.5311 1.0239 22.5328 1.02445 22.5343 1.02491C20.9907 1.5196 19.6468 2.62493 18.6965 4.25923C18.6324 4.36947 18.5687 4.47995 18.5046 4.59021C18.4815 4.62987 18.4586 4.66962 18.4356 4.70929C16.2919 8.39788 14.1591 12.0927 12.0226 15.7854C11.6748 16.3865 11.7429 16.6505 12.3571 17.0096C13.1136 17.4519 13.8751 17.8856 14.6392 18.3145C15.2228 18.6422 15.4983 18.6704 15.7963 18.3156C15.8825 18.2129 15.9705 18.0799 16.0685 17.9106C18.1361 14.3409 20.201 10.7695 22.2793 7.20587C22.4374 6.93477 22.5943 6.66297 22.7525 6.39198C22.9427 6.06642 23.21 5.73938 23.5234 5.53933C23.7638 5.38585 24.0182 5.29762 24.2731 5.26602C24.8924 5.07193 25.5465 5.2475 26.0301 5.72717C27.2656 7.67874 26.956 10.2167 25.2952 11.8277C24.9049 12.2063 24.5011 12.6186 24.1003 13.0567C22.2647 14.8583 20.5182 17.2812 20.3764 20.0457C20.3688 20.1656 20.3636 20.2854 20.3636 20.405C20.3636 28.1765 25.013 34.8835 47.0167 41.4476C47.8329 41.6911 48.706 41.9452 49.6017 42.196L43.9881 41.0364C42.4404 40.7394 39.398 40.186 37.8216 40.186H19.137C15.1419 40.1716 11.1464 40.141 7.15334 40.2255C5.33193 40.264 4.24238 38.5761 5.25314 36.9329C7.21737 33.7396 7.8461 32.5615 9.72545 29.3167C10.4414 28.0805 11.1636 26.8479 11.904 25.5776C11.9351 25.5952 11.9767 25.6176 12.0225 25.6422C12.0965 25.6818 12.1874 25.7295 12.2919 25.7837C12.3234 25.8 12.3557 25.8167 12.3893 25.834C12.8188 26.0553 13.4156 26.3554 13.9124 26.6038C14.052 26.6737 14.1819 26.7385 14.2994 26.7971C14.3264 26.8105 14.3544 26.8245 14.3798 26.8371C14.3798 26.8371 14.3798 26.8371 14.3798 26.8371C14.3803 26.8374 14.3809 26.8377 14.3814 26.8379C14.5553 26.9246 14.7496 26.7674 14.6992 26.5808C14.6991 26.5803 14.6989 26.5797 14.6988 26.5791C14.6971 26.5729 14.6952 26.5658 14.6935 26.5595C14.6684 26.4665 14.6401 26.3619 14.6094 26.248C14.589 26.1725 14.5676 26.0934 14.545 26.0098C14.5194 25.9149 14.4923 25.8147 14.4642 25.7106C14.4496 25.6566 14.4347 25.6016 14.4195 25.5454C14.3981 25.4663 14.3762 25.3852 14.3538 25.3022C14.3426 25.261 14.3314 25.2196 14.32 25.1775C14.2895 25.0647 14.2582 24.949 14.2262 24.8307C14.1903 24.6983 14.1536 24.5627 14.1163 24.425C13.8799 23.5529 13.6189 22.5923 13.3894 21.7534C13.3432 21.5844 13.2984 21.4211 13.2553 21.2638C13.2005 21.0642 13.1485 20.8756 13.1003 20.7011C13.0782 20.621 13.0568 20.5438 13.0363 20.4701C13.0019 20.3462 12.9698 20.2307 12.9408 20.1274C12.7838 19.5674 12.4867 19.3993 11.9247 19.5455C11.8279 19.5707 11.7209 19.5988 11.6061 19.6292C11.4221 19.6779 11.2161 19.7329 10.9946 19.7924C10.9369 19.8079 10.8783 19.8236 10.8186 19.8397C10.434 19.9434 10.0091 20.0587 9.56747 20.1792C9.567 20.1793 9.56653 20.1794 9.56605 20.1796C8.00058 20.6066 6.23637 21.0947 5.40106 21.3262C5.21251 21.3784 5.17611 21.6265 5.34183 21.7299C5.34228 21.7302 5.34284 21.7305 5.34329 21.7308C5.34327 21.7308 5.34329 21.7308 5.34329 21.7308C5.51154 21.8357 5.71699 21.9637 5.93619 22.1C5.94164 22.1034 5.94689 22.1067 5.95234 22.1101C6.2004 22.2643 6.46501 22.4284 6.71445 22.5824C6.77842 22.622 6.84108 22.6606 6.90244 22.6984C6.95439 22.7304 7.00491 22.7614 7.05425 22.7917C7.13206 22.8395 7.20737 22.8856 7.27652 22.9278C7.34187 22.9677 7.40076 23.0034 7.45607 23.0368C7.51687 23.0735 7.57297 23.1072 7.6188 23.1344C7.64806 23.1517 7.67397 23.1669 7.69615 23.1797C7.5256 23.4805 7.39273 23.7193 7.25576 23.9558C4.76696 28.2533 3.44746 30.4356 0.979702 34.7449C-1.73496 39.4855 1.49143 44.9878 6.97552 44.9961C10.9796 45.0022 14.9837 44.9997 18.9878 44.998V44.9999H39.4175H40.1915H63.1758C63.1758 44.9999 47.4753 40.6559 47.6371 32.3968Z" fill="white"/>
</svg>
