<svg width="239" height="31" viewBox="0 0 239 31" fill="none" xmlns="http://www.w3.org/2000/svg">
<path d="M4.20068 0.123047L3.92773 2.63037L6.4541 1.92578L6.61914 3.08105L4.20068 3.27783L5.7749 5.34717L4.68311 5.94385L3.56592 3.646L2.55029 5.94385L1.43311 5.34717L2.96924 3.27783L0.576172 3.08105L0.760254 1.92578L3.24219 2.63037L2.96924 0.123047H4.20068Z" fill="#404040"/>
<path d="M19.9111 5.34717C19.9111 6.83252 19.5345 8.00049 18.7812 8.85107C18.0322 9.70166 16.9891 10.127 15.6519 10.127C14.285 10.127 13.2292 9.71012 12.4844 8.87646C11.7438 8.03857 11.3735 6.85791 11.3735 5.33447C11.3735 3.82373 11.7459 2.65365 12.4907 1.82422C13.2355 0.99056 14.2935 0.57373 15.6646 0.57373C16.9976 0.57373 18.0386 0.996908 18.7876 1.84326C19.5366 2.68962 19.9111 3.85758 19.9111 5.34717ZM12.5161 5.34717C12.5161 6.604 12.7827 7.55827 13.3159 8.20996C13.8534 8.85742 14.632 9.18115 15.6519 9.18115C16.6802 9.18115 17.4567 8.85742 17.9814 8.20996C18.5062 7.5625 18.7686 6.60824 18.7686 5.34717C18.7686 4.0988 18.5062 3.15299 17.9814 2.50977C17.4609 1.8623 16.6886 1.53857 15.6646 1.53857C14.6362 1.53857 13.8534 1.86442 13.3159 2.51611C12.7827 3.16357 12.5161 4.10726 12.5161 5.34717Z" fill="#404040"/>
<path d="M26.519 3.94434H24.2593V10H23.2056V3.94434H20.9712V3.04297H26.519V3.94434Z" fill="#404040"/>
<path d="M28.9502 10H27.8965V3.04297H33.7363V10H32.6699V3.95703H28.9502V10Z" fill="#404040"/>
<path d="M39.208 10.127C38.7552 10.127 38.3405 10.0444 37.9639 9.87939C37.5915 9.71012 37.2783 9.45199 37.0244 9.10498H36.9482C36.999 9.51123 37.0244 9.89632 37.0244 10.2603V13.123H35.9707V3.04297H36.8276L36.9736 3.99512H37.0244C37.2952 3.61426 37.6105 3.33919 37.9702 3.16992C38.3299 3.00065 38.7425 2.91602 39.208 2.91602C40.1305 2.91602 40.8415 3.23128 41.3408 3.86182C41.8444 4.49235 42.0962 5.37679 42.0962 6.51514C42.0962 7.65771 41.8402 8.54639 41.3281 9.18115C40.8203 9.81169 40.1136 10.127 39.208 10.127ZM39.0557 3.81104C38.3447 3.81104 37.8306 4.00781 37.5132 4.40137C37.1958 4.79492 37.0329 5.42122 37.0244 6.28027V6.51514C37.0244 7.49268 37.1873 8.19303 37.5132 8.61621C37.839 9.03516 38.3617 9.24463 39.0811 9.24463C39.682 9.24463 40.1517 9.0013 40.4902 8.51465C40.833 8.02799 41.0044 7.35726 41.0044 6.50244C41.0044 5.63493 40.833 4.97054 40.4902 4.50928C40.1517 4.04378 39.6735 3.81104 39.0557 3.81104Z" fill="#404040"/>
<path d="M48.2217 10L48.0122 9.00977H47.9614C47.6144 9.44564 47.2674 9.74186 46.9204 9.89844C46.5776 10.0508 46.1481 10.127 45.6318 10.127C44.9421 10.127 44.4004 9.94922 44.0068 9.59375C43.6175 9.23828 43.4229 8.73258 43.4229 8.07666C43.4229 6.67171 44.5464 5.93538 46.7935 5.86768L47.9741 5.82959V5.39795C47.9741 4.85205 47.8556 4.45003 47.6187 4.19189C47.3859 3.92952 47.0114 3.79834 46.4951 3.79834C45.9154 3.79834 45.2594 3.97607 44.5273 4.33154L44.2036 3.52539C44.5464 3.33919 44.9209 3.1932 45.3271 3.0874C45.7376 2.98161 46.1481 2.92871 46.5586 2.92871C47.388 2.92871 48.0016 3.11279 48.3994 3.48096C48.8014 3.84912 49.0024 4.43945 49.0024 5.25195V10H48.2217ZM45.8413 9.25732C46.4972 9.25732 47.0114 9.07747 47.3838 8.71777C47.7604 8.35807 47.9487 7.85449 47.9487 7.20703V6.57861L46.895 6.62305C46.0571 6.65267 45.452 6.78385 45.0796 7.0166C44.7114 7.24512 44.5273 7.6027 44.5273 8.08936C44.5273 8.47021 44.6416 8.76009 44.8701 8.95898C45.1029 9.15788 45.4266 9.25732 45.8413 9.25732Z" fill="#404040"/>
<path d="M56.8228 4.78857C56.8228 5.24137 56.6916 5.58626 56.4292 5.82324C56.1711 6.05599 55.8071 6.21257 55.3374 6.29297V6.3501C55.9299 6.4305 56.3615 6.604 56.6323 6.87061C56.9074 7.13721 57.0449 7.50537 57.0449 7.9751C57.0449 8.62256 56.8058 9.12191 56.3276 9.47314C55.8537 9.82438 55.1597 10 54.2456 10H51.1797V3.04297H54.2329C55.9595 3.04297 56.8228 3.62484 56.8228 4.78857ZM55.9912 7.90527C55.9912 7.52865 55.8473 7.2557 55.5596 7.08643C55.276 6.91292 54.8042 6.82617 54.144 6.82617H52.2334V9.11768H54.1694C55.384 9.11768 55.9912 8.71354 55.9912 7.90527ZM55.7944 4.89014C55.7944 4.5516 55.6632 4.3125 55.4009 4.17285C55.1427 4.02897 54.7492 3.95703 54.2202 3.95703H52.2334V5.91846H54.0171C54.6688 5.91846 55.1279 5.83805 55.3945 5.67725C55.6611 5.51644 55.7944 5.25407 55.7944 4.89014Z" fill="#404040"/>
<path d="M63.7671 10H62.7007V3.94434H60.6123C60.498 5.45085 60.3394 6.64632 60.1362 7.53076C59.9331 8.4152 59.6686 9.06266 59.3428 9.47314C59.0212 9.88363 58.6107 10.0889 58.1113 10.0889C57.8828 10.0889 57.7008 10.0635 57.5654 10.0127V9.23193C57.6585 9.25732 57.7643 9.27002 57.8828 9.27002C58.3695 9.27002 58.7567 8.75586 59.0444 7.72754C59.3322 6.69922 59.5501 5.1377 59.6982 3.04297H63.7671V10Z" fill="#404040"/>
<path d="M66.3569 10H65.1255L67.125 7.06104C66.5876 6.94255 66.175 6.71403 65.8872 6.37549C65.6037 6.03271 65.4619 5.60319 65.4619 5.08691C65.4619 4.45215 65.6756 3.9528 66.103 3.58887C66.5304 3.22493 67.1271 3.04297 67.8931 3.04297H70.9907V10H69.937V7.21973H68.1787L66.3569 10ZM66.4902 5.09961C66.4902 5.90365 67.0742 6.30566 68.2422 6.30566H69.937V3.95703H68.0264C67.0023 3.95703 66.4902 4.33789 66.4902 5.09961Z" fill="#404040"/>
<path d="M73.5806 10H72.3491L74.3486 7.06104C73.8112 6.94255 73.3986 6.71403 73.1108 6.37549C72.8273 6.03271 72.6855 5.60319 72.6855 5.08691C72.6855 4.45215 72.8993 3.9528 73.3267 3.58887C73.7541 3.22493 74.3507 3.04297 75.1167 3.04297H78.2144V10H77.1606V7.21973H75.4023L73.5806 10ZM73.7139 5.09961C73.7139 5.90365 74.2979 6.30566 75.4658 6.30566H77.1606V3.95703H75.25C74.2259 3.95703 73.7139 4.33789 73.7139 5.09961Z" fill="#404040"/>
<path d="M91.2842 6.51514C91.2842 7.56885 90.9837 8.40885 90.3828 9.03516C89.7861 9.65723 88.9504 10.0127 87.8755 10.1016V13.123H86.8345V10.1016C85.785 10.0212 84.9556 9.66146 84.3462 9.02246C83.7368 8.38346 83.4321 7.54769 83.4321 6.51514C83.4321 5.46143 83.7347 4.62354 84.3398 4.00146C84.9492 3.37939 85.7935 3.02604 86.8726 2.94141V0.123047H87.8755V2.94141C88.9377 3.03874 89.7713 3.40479 90.3765 4.03955C90.9816 4.67432 91.2842 5.49951 91.2842 6.51514ZM84.5366 6.51514C84.5366 7.32764 84.7228 7.96452 85.0952 8.42578C85.4676 8.88704 86.0601 9.15576 86.8726 9.23193V3.82373C86.0897 3.89567 85.5036 4.15169 85.1143 4.5918C84.7292 5.02767 84.5366 5.66878 84.5366 6.51514ZM90.1924 6.51514C90.1924 4.89437 89.4201 4.00146 87.8755 3.83643V9.23193C88.6795 9.15153 89.2656 8.8807 89.6338 8.41943C90.0062 7.95817 90.1924 7.3234 90.1924 6.51514Z" fill="#404040"/>
<path d="M99.1299 6.51514C99.1299 7.64925 98.8442 8.53581 98.2729 9.1748C97.7017 9.80957 96.9124 10.127 95.9053 10.127C95.2832 10.127 94.731 9.98096 94.2485 9.68896C93.7661 9.39697 93.3937 8.97803 93.1313 8.43213C92.869 7.88623 92.7378 7.24723 92.7378 6.51514C92.7378 5.38102 93.0213 4.4987 93.5884 3.86816C94.1554 3.2334 94.9425 2.91602 95.9497 2.91602C96.923 2.91602 97.6953 3.23975 98.2666 3.88721C98.8421 4.53467 99.1299 5.41064 99.1299 6.51514ZM93.8296 6.51514C93.8296 7.40381 94.0073 8.08089 94.3628 8.54639C94.7183 9.01188 95.2409 9.24463 95.9307 9.24463C96.6204 9.24463 97.1431 9.014 97.4985 8.55273C97.8582 8.08724 98.0381 7.40804 98.0381 6.51514C98.0381 5.6307 97.8582 4.95996 97.4985 4.50293C97.1431 4.04167 96.6162 3.81104 95.918 3.81104C95.2282 3.81104 94.7077 4.03743 94.3564 4.49023C94.0052 4.94303 93.8296 5.618 93.8296 6.51514Z" fill="#404040"/>
<path d="M104.221 10.127C103.768 10.127 103.353 10.0444 102.977 9.87939C102.604 9.71012 102.291 9.45199 102.037 9.10498H101.961C102.012 9.51123 102.037 9.89632 102.037 10.2603V13.123H100.983V3.04297H101.84L101.986 3.99512H102.037C102.308 3.61426 102.623 3.33919 102.983 3.16992C103.343 3.00065 103.755 2.91602 104.221 2.91602C105.143 2.91602 105.854 3.23128 106.354 3.86182C106.857 4.49235 107.109 5.37679 107.109 6.51514C107.109 7.65771 106.853 8.54639 106.341 9.18115C105.833 9.81169 105.126 10.127 104.221 10.127ZM104.068 3.81104C103.357 3.81104 102.843 4.00781 102.526 4.40137C102.208 4.79492 102.046 5.42122 102.037 6.28027V6.51514C102.037 7.49268 102.2 8.19303 102.526 8.61621C102.852 9.03516 103.374 9.24463 104.094 9.24463C104.695 9.24463 105.164 9.0013 105.503 8.51465C105.846 8.02799 106.017 7.35726 106.017 6.50244C106.017 5.63493 105.846 4.97054 105.503 4.50928C105.164 4.04378 104.686 3.81104 104.068 3.81104Z" fill="#404040"/>
<path d="M112.568 8.98438L112.765 8.39404L113.038 7.64502L114.923 3.05566H116.262V10H115.329V4.25537L115.202 4.62354L114.834 5.59473L113.038 10H112.155L110.359 5.58203C110.135 5.01497 109.98 4.57275 109.896 4.25537V10H108.956V3.05566H110.245L112.066 7.46729C112.248 7.93278 112.416 8.43848 112.568 8.98438Z" fill="#404040"/>
<path d="M117.411 3.04297H118.541L120.064 7.01025C120.399 7.91585 120.606 8.56966 120.687 8.97168H120.737C120.792 8.75586 120.907 8.3877 121.08 7.86719C121.258 7.34245 121.833 5.73438 122.807 3.04297H123.937L120.947 10.9648C120.651 11.7477 120.304 12.3021 119.906 12.6279C119.512 12.958 119.028 13.123 118.452 13.123C118.131 13.123 117.813 13.0871 117.5 13.0151V12.1709C117.733 12.2217 117.993 12.2471 118.281 12.2471C119.004 12.2471 119.521 11.8408 119.83 11.0283L120.217 10.0381L117.411 3.04297Z" fill="#404040"/>
<path d="M126.171 8.48926L126.266 8.63525C126.156 9.05843 125.997 9.54932 125.79 10.1079C125.583 10.6707 125.367 11.1934 125.143 11.6758H124.349C124.463 11.2357 124.588 10.6919 124.724 10.0444C124.863 9.39697 124.961 8.87858 125.016 8.48926H126.171Z" fill="#404040"/>
<path d="M137.273 4.78857C137.273 5.24137 137.142 5.58626 136.879 5.82324C136.621 6.05599 136.257 6.21257 135.788 6.29297V6.3501C136.38 6.4305 136.812 6.604 137.083 6.87061C137.358 7.13721 137.495 7.50537 137.495 7.9751C137.495 8.62256 137.256 9.12191 136.778 9.47314C136.304 9.82438 135.61 10 134.696 10H131.63V3.04297H134.683C136.41 3.04297 137.273 3.62484 137.273 4.78857ZM136.441 7.90527C136.441 7.52865 136.298 7.2557 136.01 7.08643C135.726 6.91292 135.254 6.82617 134.594 6.82617H132.684V9.11768H134.62C135.834 9.11768 136.441 8.71354 136.441 7.90527ZM136.245 4.89014C136.245 4.5516 136.113 4.3125 135.851 4.17285C135.593 4.02897 135.199 3.95703 134.67 3.95703H132.684V5.91846H134.467C135.119 5.91846 135.578 5.83805 135.845 5.67725C136.111 5.51644 136.245 5.25407 136.245 4.89014Z" fill="#404040"/>
<path d="M140.085 5.91846H141.983C142.867 5.91846 143.521 6.0835 143.944 6.41357C144.372 6.73942 144.585 7.22819 144.585 7.87988C144.585 8.57812 144.359 9.1071 143.906 9.4668C143.458 9.82227 142.795 10 141.919 10H139.031V3.04297H140.085V5.91846ZM146.807 10H145.753V3.04297H146.807V10ZM140.085 6.82617V9.11768H141.869C142.986 9.11768 143.544 8.72624 143.544 7.94336C143.544 7.55404 143.415 7.27051 143.157 7.09277C142.899 6.91504 142.459 6.82617 141.837 6.82617H140.085Z" fill="#404040"/>
<path d="M155.205 10.127C154.198 10.127 153.417 9.81803 152.863 9.2002C152.313 8.57812 152.038 7.70003 152.038 6.56592C152.038 5.40218 152.317 4.50293 152.875 3.86816C153.438 3.2334 154.238 2.91602 155.275 2.91602C155.609 2.91602 155.944 2.95199 156.278 3.02393C156.612 3.09587 156.875 3.1805 157.065 3.27783L156.741 4.17285C156.508 4.07975 156.255 4.00358 155.979 3.94434C155.704 3.88086 155.461 3.84912 155.25 3.84912C153.836 3.84912 153.129 4.75049 153.129 6.55322C153.129 7.40804 153.301 8.06396 153.644 8.521C153.991 8.97803 154.503 9.20654 155.18 9.20654C155.759 9.20654 156.354 9.08171 156.963 8.83203V9.76514C156.498 10.0063 155.912 10.127 155.205 10.127Z" fill="#404040"/>
<path d="M164.625 6.51514C164.625 7.64925 164.339 8.53581 163.768 9.1748C163.197 9.80957 162.408 10.127 161.4 10.127C160.778 10.127 160.226 9.98096 159.744 9.68896C159.261 9.39697 158.889 8.97803 158.626 8.43213C158.364 7.88623 158.233 7.24723 158.233 6.51514C158.233 5.38102 158.516 4.4987 159.083 3.86816C159.651 3.2334 160.438 2.91602 161.445 2.91602C162.418 2.91602 163.19 3.23975 163.762 3.88721C164.337 4.53467 164.625 5.41064 164.625 6.51514ZM159.325 6.51514C159.325 7.40381 159.502 8.08089 159.858 8.54639C160.213 9.01188 160.736 9.24463 161.426 9.24463C162.116 9.24463 162.638 9.014 162.994 8.55273C163.353 8.08724 163.533 7.40804 163.533 6.51514C163.533 5.6307 163.353 4.95996 162.994 4.50293C162.638 4.04167 162.111 3.81104 161.413 3.81104C160.723 3.81104 160.203 4.03743 159.852 4.49023C159.5 4.94303 159.325 5.618 159.325 6.51514Z" fill="#404040"/>
<path d="M170.668 3.94434H167.532V10H166.479V3.04297H170.668V3.94434Z" fill="#404040"/>
<path d="M177.238 10H176.171V3.94434H174.083C173.969 5.45085 173.81 6.64632 173.607 7.53076C173.404 8.4152 173.139 9.06266 172.813 9.47314C172.492 9.88363 172.081 10.0889 171.582 10.0889C171.354 10.0889 171.172 10.0635 171.036 10.0127V9.23193C171.129 9.25732 171.235 9.27002 171.354 9.27002C171.84 9.27002 172.227 8.75586 172.515 7.72754C172.803 6.69922 173.021 5.1377 173.169 3.04297H177.238V10Z" fill="#404040"/>
<path d="M183.757 10L183.547 9.00977H183.497C183.15 9.44564 182.803 9.74186 182.456 9.89844C182.113 10.0508 181.683 10.127 181.167 10.127C180.477 10.127 179.936 9.94922 179.542 9.59375C179.153 9.23828 178.958 8.73258 178.958 8.07666C178.958 6.67171 180.082 5.93538 182.329 5.86768L183.509 5.82959V5.39795C183.509 4.85205 183.391 4.45003 183.154 4.19189C182.921 3.92952 182.547 3.79834 182.03 3.79834C181.451 3.79834 180.795 3.97607 180.062 4.33154L179.739 3.52539C180.082 3.33919 180.456 3.1932 180.862 3.0874C181.273 2.98161 181.683 2.92871 182.094 2.92871C182.923 2.92871 183.537 3.11279 183.935 3.48096C184.337 3.84912 184.538 4.43945 184.538 5.25195V10H183.757ZM181.376 9.25732C182.032 9.25732 182.547 9.07747 182.919 8.71777C183.296 8.35807 183.484 7.85449 183.484 7.20703V6.57861L182.43 6.62305C181.592 6.65267 180.987 6.78385 180.615 7.0166C180.247 7.24512 180.062 7.6027 180.062 8.08936C180.062 8.47021 180.177 8.76009 180.405 8.95898C180.638 9.15788 180.962 9.25732 181.376 9.25732Z" fill="#404040"/>
<path d="M191.901 9.09229H194.986V3.04297H196.052V10H186.715V3.04297H187.769V9.09229H190.847V3.04297H191.901V9.09229Z" fill="#404040"/>
<path d="M202.571 10L202.362 9.00977H202.311C201.964 9.44564 201.617 9.74186 201.27 9.89844C200.927 10.0508 200.498 10.127 199.981 10.127C199.292 10.127 198.75 9.94922 198.356 9.59375C197.967 9.23828 197.772 8.73258 197.772 8.07666C197.772 6.67171 198.896 5.93538 201.143 5.86768L202.324 5.82959V5.39795C202.324 4.85205 202.205 4.45003 201.968 4.19189C201.736 3.92952 201.361 3.79834 200.845 3.79834C200.265 3.79834 199.609 3.97607 198.877 4.33154L198.553 3.52539C198.896 3.33919 199.271 3.1932 199.677 3.0874C200.087 2.98161 200.498 2.92871 200.908 2.92871C201.738 2.92871 202.351 3.11279 202.749 3.48096C203.151 3.84912 203.352 4.43945 203.352 5.25195V10H202.571ZM200.191 9.25732C200.847 9.25732 201.361 9.07747 201.733 8.71777C202.11 8.35807 202.298 7.85449 202.298 7.20703V6.57861L201.245 6.62305C200.407 6.65267 199.802 6.78385 199.429 7.0166C199.061 7.24512 198.877 7.6027 198.877 8.08936C198.877 8.47021 198.991 8.76009 199.22 8.95898C199.452 9.15788 199.776 9.25732 200.191 9.25732Z" fill="#404040"/>
<path d="M208.468 10.127C207.44 10.127 206.627 9.8138 206.031 9.1875C205.438 8.5612 205.142 7.69157 205.142 6.57861C205.142 5.45719 205.417 4.56641 205.967 3.90625C206.522 3.24609 207.264 2.91602 208.195 2.91602C209.067 2.91602 209.757 3.20378 210.265 3.7793C210.772 4.35059 211.026 5.10596 211.026 6.04541V6.71191H206.234C206.255 7.52865 206.46 8.1486 206.85 8.57178C207.243 8.99495 207.795 9.20654 208.506 9.20654C209.255 9.20654 209.996 9.04997 210.728 8.73682V9.67627C210.356 9.83708 210.002 9.95133 209.668 10.019C209.338 10.091 208.938 10.127 208.468 10.127ZM208.183 3.79834C207.624 3.79834 207.178 3.98031 206.843 4.34424C206.513 4.70817 206.319 5.21175 206.259 5.85498H209.896C209.896 5.19059 209.748 4.68278 209.452 4.33154C209.156 3.97607 208.733 3.79834 208.183 3.79834Z" fill="#404040"/>
<path d="M217.52 3.94434H215.26V10H214.207V3.94434H211.972V3.04297H217.52V3.94434Z" fill="#404040"/>
<path d="M221.836 10.127C220.808 10.127 219.996 9.8138 219.399 9.1875C218.806 8.5612 218.51 7.69157 218.51 6.57861C218.51 5.45719 218.785 4.56641 219.335 3.90625C219.89 3.24609 220.632 2.91602 221.563 2.91602C222.435 2.91602 223.125 3.20378 223.633 3.7793C224.141 4.35059 224.395 5.10596 224.395 6.04541V6.71191H219.602C219.623 7.52865 219.828 8.1486 220.218 8.57178C220.611 8.99495 221.164 9.20654 221.875 9.20654C222.624 9.20654 223.364 9.04997 224.096 8.73682V9.67627C223.724 9.83708 223.37 9.95133 223.036 10.019C222.706 10.091 222.306 10.127 221.836 10.127ZM221.551 3.79834C220.992 3.79834 220.546 3.98031 220.211 4.34424C219.881 4.70817 219.687 5.21175 219.627 5.85498H223.265C223.265 5.19059 223.117 4.68278 222.82 4.33154C222.524 3.97607 222.101 3.79834 221.551 3.79834Z" fill="#404040"/>
<path d="M228.978 10.127C227.97 10.127 227.19 9.81803 226.635 9.2002C226.085 8.57812 225.81 7.70003 225.81 6.56592C225.81 5.40218 226.089 4.50293 226.648 3.86816C227.211 3.2334 228.011 2.91602 229.047 2.91602C229.382 2.91602 229.716 2.95199 230.05 3.02393C230.385 3.09587 230.647 3.1805 230.837 3.27783L230.514 4.17285C230.281 4.07975 230.027 4.00358 229.752 3.94434C229.477 3.88086 229.234 3.84912 229.022 3.84912C227.609 3.84912 226.902 4.75049 226.902 6.55322C226.902 7.40804 227.073 8.06396 227.416 8.521C227.763 8.97803 228.275 9.20654 228.952 9.20654C229.532 9.20654 230.126 9.08171 230.736 8.83203V9.76514C230.27 10.0063 229.684 10.127 228.978 10.127Z" fill="#404040"/>
<path d="M233.446 5.91846H235.592C237.369 5.91846 238.258 6.57227 238.258 7.87988C238.258 8.56543 238.025 9.09017 237.56 9.4541C237.098 9.81803 236.421 10 235.528 10H232.393V3.04297H233.446V5.91846ZM233.446 6.82617V9.11768H235.478C236.036 9.11768 236.464 9.02035 236.76 8.82568C237.056 8.63102 237.204 8.33691 237.204 7.94336C237.204 7.55827 237.067 7.27686 236.792 7.09912C236.521 6.91715 236.072 6.82617 235.446 6.82617H233.446Z" fill="#404040"/>
<path d="M22.0757 28.127C21.0685 28.127 20.2878 27.818 19.7334 27.2002C19.1833 26.5781 18.9082 25.7 18.9082 24.5659C18.9082 23.4022 19.1875 22.5029 19.7461 21.8682C20.3089 21.2334 21.1087 20.916 22.1455 20.916C22.4798 20.916 22.8141 20.952 23.1484 21.0239C23.4827 21.0959 23.7451 21.1805 23.9355 21.2778L23.6118 22.1729C23.3791 22.0798 23.1252 22.0036 22.8501 21.9443C22.575 21.8809 22.3317 21.8491 22.1201 21.8491C20.7067 21.8491 20 22.7505 20 24.5532C20 25.408 20.1714 26.064 20.5142 26.521C20.8612 26.978 21.3732 27.2065 22.0503 27.2065C22.63 27.2065 23.2246 27.0817 23.834 26.832V27.7651C23.3685 28.0063 22.7824 28.127 22.0757 28.127Z" fill="#404040"/>
<path d="M29.9214 28H28.8677V21.043H34.7075V28H33.6411V21.957H29.9214V28Z" fill="#404040"/>
<path d="M42.9468 24.5151C42.9468 25.6493 42.6611 26.5358 42.0898 27.1748C41.5186 27.8096 40.7293 28.127 39.7222 28.127C39.1001 28.127 38.5479 27.981 38.0654 27.689C37.583 27.397 37.2106 26.978 36.9482 26.4321C36.6859 25.8862 36.5547 25.2472 36.5547 24.5151C36.5547 23.381 36.8382 22.4987 37.4053 21.8682C37.9723 21.2334 38.7594 20.916 39.7666 20.916C40.7399 20.916 41.5122 21.2397 42.0835 21.8872C42.659 22.5347 42.9468 23.4106 42.9468 24.5151ZM37.6465 24.5151C37.6465 25.4038 37.8242 26.0809 38.1797 26.5464C38.5352 27.0119 39.0578 27.2446 39.7476 27.2446C40.4373 27.2446 40.96 27.014 41.3154 26.5527C41.6751 26.0872 41.855 25.408 41.855 24.5151C41.855 23.6307 41.6751 22.96 41.3154 22.5029C40.96 22.0417 40.4331 21.811 39.7349 21.811C39.0451 21.811 38.5246 22.0374 38.1733 22.4902C37.8221 22.943 37.6465 23.618 37.6465 24.5151Z" fill="#404040"/>
<path d="M49.9863 28H48.9199V21.9443H46.8315C46.7173 23.4508 46.5586 24.6463 46.3555 25.5308C46.1523 26.4152 45.8879 27.0627 45.562 27.4731C45.2404 27.8836 44.8299 28.0889 44.3306 28.0889C44.1021 28.0889 43.9201 28.0635 43.7847 28.0127V27.2319C43.8778 27.2573 43.9836 27.27 44.1021 27.27C44.5887 27.27 44.9759 26.7559 45.2637 25.7275C45.5514 24.6992 45.7694 23.1377 45.9175 21.043H49.9863V28Z" fill="#404040"/>
<path d="M53.2173 21.043V25.4546L53.1729 26.6099L53.1538 26.9717L56.918 21.043H58.2319V28H57.248V23.7471L57.2671 22.9092L57.2988 22.084L53.541 28H52.2271V21.043H53.2173Z" fill="#404040"/>
<path d="M65.1572 21.9443H62.8975V28H61.8438V21.9443H59.6094V21.043H65.1572V21.9443Z" fill="#404040"/>
<path d="M67.5249 21.043V25.4546L67.4805 26.6099L67.4614 26.9717L71.2256 21.043H72.5396V28H71.5557V23.7471L71.5747 22.9092L71.6064 22.084L67.8486 28H66.5347V21.043H67.5249Z" fill="#404040"/>
<path d="M78.8301 21.043H79.9854L76.9829 24.4009L80.2329 28H79.0015L75.8276 24.4771V28H74.7739V21.043H75.8276V24.4263L78.8301 21.043Z" fill="#404040"/>
<path d="M87.5327 24.5151C87.5327 25.6493 87.2471 26.5358 86.6758 27.1748C86.1045 27.8096 85.3153 28.127 84.3081 28.127C83.686 28.127 83.1338 27.981 82.6514 27.689C82.1689 27.397 81.7965 26.978 81.5342 26.4321C81.2718 25.8862 81.1406 25.2472 81.1406 24.5151C81.1406 23.381 81.4242 22.4987 81.9912 21.8682C82.5583 21.2334 83.3454 20.916 84.3525 20.916C85.3258 20.916 86.0981 21.2397 86.6694 21.8872C87.245 22.5347 87.5327 23.4106 87.5327 24.5151ZM82.2324 24.5151C82.2324 25.4038 82.4102 26.0809 82.7656 26.5464C83.1211 27.0119 83.6437 27.2446 84.3335 27.2446C85.0233 27.2446 85.5459 27.014 85.9014 26.5527C86.2611 26.0872 86.4409 25.408 86.4409 24.5151C86.4409 23.6307 86.2611 22.96 85.9014 22.5029C85.5459 22.0417 85.019 21.811 84.3208 21.811C83.631 21.811 83.1105 22.0374 82.7593 22.4902C82.408 22.943 82.2324 23.618 82.2324 24.5151Z" fill="#404040"/>
<path d="M90.3765 21.043V25.4546L90.332 26.6099L90.313 26.9717L94.0771 21.043H95.3911V28H94.4072V23.7471L94.4263 22.9092L94.458 22.084L90.7002 28H89.3862V21.043H90.3765ZM92.3633 20.1226C91.5804 20.1226 91.0091 19.9723 90.6494 19.6719C90.2897 19.3672 90.0887 18.8678 90.0464 18.1738H91.0366C91.0747 18.6139 91.189 18.9207 91.3794 19.0942C91.5741 19.2677 91.9105 19.3545 92.3887 19.3545C92.8245 19.3545 93.1462 19.2614 93.3535 19.0752C93.5651 18.889 93.6942 18.5885 93.7407 18.1738H94.7373C94.6865 18.8424 94.4728 19.3354 94.0962 19.6528C93.7196 19.966 93.1419 20.1226 92.3633 20.1226Z" fill="#404040"/>
<path d="M102.056 28H101.002V21.043H106.842V28H105.776V21.957H102.056V28Z" fill="#404040"/>
<path d="M115.082 24.5151C115.082 25.6493 114.796 26.5358 114.225 27.1748C113.653 27.8096 112.864 28.127 111.857 28.127C111.235 28.127 110.683 27.981 110.2 27.689C109.718 27.397 109.345 26.978 109.083 26.4321C108.821 25.8862 108.689 25.2472 108.689 24.5151C108.689 23.381 108.973 22.4987 109.54 21.8682C110.107 21.2334 110.894 20.916 111.901 20.916C112.875 20.916 113.647 21.2397 114.218 21.8872C114.794 22.5347 115.082 23.4106 115.082 24.5151ZM109.781 24.5151C109.781 25.4038 109.959 26.0809 110.314 26.5464C110.67 27.0119 111.193 27.2446 111.882 27.2446C112.572 27.2446 113.095 27.014 113.45 26.5527C113.81 26.0872 113.99 25.408 113.99 24.5151C113.99 23.6307 113.81 22.96 113.45 22.5029C113.095 22.0417 112.568 21.811 111.87 21.811C111.18 21.811 110.659 22.0374 110.308 22.4902C109.957 22.943 109.781 23.618 109.781 24.5151Z" fill="#404040"/>
<path d="M121.639 23.9312C122.955 23.9312 123.613 23.5672 123.613 22.8394C123.613 22.1538 123.08 21.811 122.013 21.811C121.687 21.811 121.391 21.8407 121.125 21.8999C120.858 21.9591 120.509 22.0776 120.077 22.2554L119.703 21.3984C120.422 21.0768 121.207 20.916 122.058 20.916C122.857 20.916 123.488 21.0811 123.949 21.4111C124.41 21.737 124.641 22.1834 124.641 22.7505C124.641 23.5291 124.207 24.0391 123.34 24.2803V24.3311C123.873 24.4876 124.262 24.7119 124.508 25.0039C124.753 25.2917 124.876 25.6535 124.876 26.0894C124.876 26.7326 124.616 27.234 124.095 27.5938C123.579 27.9492 122.864 28.127 121.95 28.127C120.947 28.127 120.172 27.9767 119.626 27.6763V26.7114C120.401 27.0754 121.184 27.2573 121.975 27.2573C122.584 27.2573 123.044 27.1536 123.353 26.9463C123.666 26.7347 123.822 26.4321 123.822 26.0386C123.822 25.2303 123.164 24.8262 121.848 24.8262H120.883V23.9312H121.639Z" fill="#404040"/>
<path d="M130.875 28L130.665 27.0098H130.614C130.267 27.4456 129.92 27.7419 129.573 27.8984C129.23 28.0508 128.801 28.127 128.285 28.127C127.595 28.127 127.053 27.9492 126.66 27.5938C126.27 27.2383 126.076 26.7326 126.076 26.0767C126.076 24.6717 127.199 23.9354 129.446 23.8677L130.627 23.8296V23.3979C130.627 22.8521 130.508 22.45 130.271 22.1919C130.039 21.9295 129.664 21.7983 129.148 21.7983C128.568 21.7983 127.912 21.9761 127.18 22.3315L126.856 21.5254C127.199 21.3392 127.574 21.1932 127.98 21.0874C128.39 20.9816 128.801 20.9287 129.211 20.9287C130.041 20.9287 130.654 21.1128 131.052 21.481C131.454 21.8491 131.655 22.4395 131.655 23.252V28H130.875ZM128.494 27.2573C129.15 27.2573 129.664 27.0775 130.037 26.7178C130.413 26.3581 130.602 25.8545 130.602 25.207V24.5786L129.548 24.623C128.71 24.6527 128.105 24.7839 127.732 25.0166C127.364 25.2451 127.18 25.6027 127.18 26.0894C127.18 26.4702 127.294 26.7601 127.523 26.959C127.756 27.1579 128.079 27.2573 128.494 27.2573Z" fill="#404040"/>
<path d="M139.019 27.0923H142.104V21.0557H143.157V27.0923H144.154V30.3931H143.087V28H133.833V21.0557H134.886V27.0923H137.965V21.0557H139.019V27.0923Z" fill="#404040"/>
<path d="M146.49 21.043V25.4546L146.445 26.6099L146.426 26.9717L150.19 21.043H151.504V28H150.521V23.7471L150.54 22.9092L150.571 22.084L146.813 28H145.5V21.043H146.49Z" fill="#404040"/>
<path d="M158.43 21.9443H156.17V28H155.116V21.9443H152.882V21.043H158.43V21.9443Z" fill="#404040"/>
<path d="M162.746 28.127C161.718 28.127 160.905 27.8138 160.309 27.1875C159.716 26.5612 159.42 25.6916 159.42 24.5786C159.42 23.4572 159.695 22.5664 160.245 21.9062C160.799 21.2461 161.542 20.916 162.473 20.916C163.345 20.916 164.035 21.2038 164.542 21.7793C165.05 22.3506 165.304 23.106 165.304 24.0454V24.7119H160.512C160.533 25.5286 160.738 26.1486 161.127 26.5718C161.521 26.995 162.073 27.2065 162.784 27.2065C163.533 27.2065 164.274 27.05 165.006 26.7368V27.6763C164.633 27.8371 164.28 27.9513 163.946 28.019C163.616 28.091 163.216 28.127 162.746 28.127ZM162.46 21.7983C161.902 21.7983 161.455 21.9803 161.121 22.3442C160.791 22.7082 160.596 23.2118 160.537 23.855H164.174C164.174 23.1906 164.026 22.6828 163.73 22.3315C163.434 21.9761 163.011 21.7983 162.46 21.7983Z" fill="#404040"/>
<path d="M176.527 30.4058H175.505V28H170.643V30.4058H169.627V27.0923H170.173C170.74 26.3221 171.184 25.4186 171.506 24.3818C171.827 23.3451 171.995 22.2321 172.007 21.043H175.53V27.0923H176.527V30.4058ZM174.515 27.0923V21.8745H172.953C172.898 22.814 172.716 23.7661 172.407 24.731C172.103 25.6916 171.722 26.4787 171.265 27.0923H174.515Z" fill="#404040"/>
<path d="M182.202 28L181.992 27.0098H181.941C181.594 27.4456 181.247 27.7419 180.9 27.8984C180.558 28.0508 180.128 28.127 179.612 28.127C178.922 28.127 178.38 27.9492 177.987 27.5938C177.597 27.2383 177.403 26.7326 177.403 26.0767C177.403 24.6717 178.526 23.9354 180.773 23.8677L181.954 23.8296V23.3979C181.954 22.8521 181.836 22.45 181.599 22.1919C181.366 21.9295 180.991 21.7983 180.475 21.7983C179.895 21.7983 179.239 21.9761 178.507 22.3315L178.184 21.5254C178.526 21.3392 178.901 21.1932 179.307 21.0874C179.718 20.9816 180.128 20.9287 180.539 20.9287C181.368 20.9287 181.982 21.1128 182.379 21.481C182.781 21.8491 182.982 22.4395 182.982 23.252V28H182.202ZM179.821 27.2573C180.477 27.2573 180.991 27.0775 181.364 26.7178C181.74 26.3581 181.929 25.8545 181.929 25.207V24.5786L180.875 24.623C180.037 24.6527 179.432 24.7839 179.06 25.0166C178.691 25.2451 178.507 25.6027 178.507 26.0894C178.507 26.4702 178.622 26.7601 178.85 26.959C179.083 27.1579 179.407 27.2573 179.821 27.2573Z" fill="#404040"/>
<path d="M186.213 21.043V23.9565H190.111V21.043H191.165V28H190.111V24.8643H186.213V28H185.16V21.043H186.213Z" fill="#404040"/>
<path d="M194.453 21.043V23.9565H198.35V21.043H199.404V28H198.35V24.8643H194.453V28H193.399V21.043H194.453Z" fill="#404040"/>
<path d="M202.692 23.9185H204.59C205.474 23.9185 206.128 24.0835 206.551 24.4136C206.979 24.7394 207.192 25.2282 207.192 25.8799C207.192 26.5781 206.966 27.1071 206.513 27.4668C206.065 27.8223 205.402 28 204.526 28H201.638V21.043H202.692V23.9185ZM209.414 28H208.36V21.043H209.414V28ZM202.692 24.8262V27.1177H204.476C205.593 27.1177 206.151 26.7262 206.151 25.9434C206.151 25.554 206.022 25.2705 205.764 25.0928C205.506 24.915 205.066 24.8262 204.444 24.8262H202.692Z" fill="#404040"/>
<path d="M213.331 24.439L210.912 21.043H212.112L213.946 23.709L215.774 21.043H216.961L214.543 24.439L217.088 28H215.895L213.946 25.1816L211.979 28H210.785L213.331 24.439Z" fill="#404040"/>
<path d="M218.32 27.3271C218.32 27.0436 218.383 26.8299 218.51 26.686C218.641 26.5379 218.828 26.4639 219.069 26.4639C219.314 26.4639 219.505 26.5379 219.64 26.686C219.78 26.8299 219.85 27.0436 219.85 27.3271C219.85 27.6022 219.78 27.8138 219.64 27.9619C219.5 28.11 219.31 28.1841 219.069 28.1841C218.853 28.1841 218.673 28.1185 218.529 27.9873C218.39 27.8519 218.32 27.6318 218.32 27.3271Z" fill="#404040"/>
</svg>
